# xmcd
#
# Track frame offsets:
#	150
#	18614
#	35424
#	52711
#	71094
#	89327
#	107521
#	123736
#	140780
#	158181
#	173034
#	190072
#	206074
#	221437
#	237574
#
# Disc length: 3395 seconds
#
# Revision: 1
# Processed by: cddbd v1.5.2PL0 Copyright (c) Steve Scherf et al.
# Submitted via: audiograbber 1.82.02
#
DISCID=d90d410f
DTITLE=Ayman - Es ist Zeit
DYEAR=2008
DGENRE=R&B
TTITLE0=Es ist Zeit
TTITLE1=Mein Wort
TTITLE2=Und der Sommer
TTITLE3=Reich' mir deine Hand
TTITLE4=Jahr für Jahr
TTITLE5=Helden wie du und ich
TTITLE6=Dein Licht
TTITLE7=Wenn eine Träne schweigt
TTITLE8=Es tut so weh
TTITLE9=Wir woll'n mehr
TTITLE10=Heiss
TTITLE11=Habibi
TTITLE12=Fühlst du (Ey Yo)
TTITLE13=Supermodel
TTITLE14=Man sieht sich zweimal
EXTD=
EXTT0=
EXTT1=
EXTT2=
EXTT3=
EXTT4=
EXTT5=
EXTT6=
EXTT7=
EXTT8=
EXTT9=
EXTT10=
EXTT11=
EXTT12=
EXTT13=
EXTT14=
PLAYORDER=
